<?xml version="1.0" standalone="no"?>
<!DOCTYPE svg PUBLIC "-//W3C//DTD SVG 20010904//EN"
 "http://www.w3.org/TR/2001/REC-SVG-20010904/DTD/svg10.dtd">
<svg version="1.0" xmlns="http://www.w3.org/2000/svg"
 width="2200.000000pt" height="2200.000000pt" viewBox="0 0 2200.000000 2200.000000"
 preserveAspectRatio="xMidYMid meet">
<metadata>
Created by potrace 1.11, written by Peter Selinger 2001-2013
</metadata>
<g transform="translate(0.000000,2200.000000) scale(0.100000,-0.100000)"
fill="#000000" stroke="none">
<path d="M8817 20404 c-1 -1 -31 -4 -67 -8 -56 -5 -93 -11 -135 -20 -5 -1 -26
-6 -45 -10 -112 -24 -283 -100 -402 -179 -347 -228 -470 -307 -478 -307 -4 0
-10 -3 -12 -8 -1 -4 -172 -117 -378 -252 -206 -134 -438 -285 -515 -335 -77
-51 -387 -253 -690 -450 -715 -466 -789 -514 -920 -600 -181 -119 -399 -261
-590 -385 -99 -64 -238 -155 -310 -202 -385 -252 -467 -306 -543 -355 -46 -30
-123 -93 -172 -140 -191 -181 -301 -375 -362 -633 -23 -97 -34 -414 -17 -488
5 -23 11 -57 13 -76 15 -111 93 -304 175 -434 60 -93 194 -301 326 -507 28
-44 105 -163 170 -265 65 -102 141 -221 170 -265 28 -44 100 -156 160 -250
108 -170 135 -212 257 -400 35 -55 101 -158 147 -230 45 -71 114 -177 152
-235 38 -58 72 -111 76 -118 9 -20 124 -198 170 -261 21 -30 79 -96 128 -148
253 -262 534 -385 880 -385 151 0 260 20 411 77 122 46 220 106 739 451 280
186 515 343 522 347 11 7 13 -265 13 -1476 l0 -1484 -1575 0 c-1390 -1 -1645
-3 -1730 -19 -63 -11 -164 -39 -187 -51 -16 -7 -28 -11 -28 -9 0 9 -163 -76
-228 -119 -67 -45 -92 -65 -188 -154 -191 -178 -318 -429 -354 -701 -9 -71 -7
-3359 2 -3400 4 -14 8 -36 11 -50 59 -292 222 -551 460 -731 186 -140 345
-204 589 -238 36 -5 2781 -9 6264 -9 6738 0 6282 -4 6474 54 359 109 674 419
789 776 63 197 60 110 57 1943 -1 919 -5 1685 -9 1704 -44 220 -137 417 -268
566 -207 235 -440 371 -720 420 -85 15 -229 17 -1426 17 -733 0 -1334 3 -1334
6 -1 4 -2 2016 -3 4472 -1 2456 -5 4479 -9 4495 -4 17 -9 47 -11 67 -18 145
-108 353 -214 493 -25 33 -80 95 -121 137 -196 198 -411 307 -701 354 -35 6
-4406 13 -4413 8z"/>
</g>
</svg>
